<svg xmlns="http://www.w3.org/2000/svg" xmlns:svg="http://www.w3.org/2000/svg" id="svg3760" width="23.467" height="23.467" version="1.1"><metadata id="metadata3765"/><g id="layer1" transform="translate(-588.03809,-648.15775)"><path id="rect4112" d="M 3.2,3.2000125 3.201693,19.200272 H 2.1333337 v 1.066407 H 3.201693 v 1.068359 H 4.2680993 V 20.266679 L 19.20026,20.26642 v 1.068359 h 1.066407 V 20.26642 h 1.068359 V 19.200013 H 20.266667 L 20.264967,3.1997531 H 19.19856 l 0.0017,16.0002599 -14.9321607,2.59e-4 -0.00169,-16.0002595 z" transform="translate(588.03809,648.15775)" style="opacity:1;fill:#4d4d4d;fill-opacity:1;stroke:none;stroke-width:1.06666672"/><g id="text891" aria-label="T" transform="translate(0.1214191,0.8047292)" style="font-style:normal;font-weight:400;font-size:19.37595367px;line-height:1.25;font-family:sans-serif;letter-spacing:0;word-spacing:0;fill:#4d4d4d;fill-opacity:1;stroke:none;stroke-width:.48439881"><path id="path926" d="M 6.5019531,4.2675781 6.3496094,8.1492305 h 0.5605468 c 0.04415,-0.58027 0.1826457,-1.0402694 0.4160157,-1.3808593 0.23337,-0.34059 0.5138167,-0.5715764 0.8417969,-0.6914063 0.2522899,-0.08836 0.5780531,-0.1308594 1.1772431,-0.1308594 h 1.2421871 v 8.8256715 c -0.008,0.71899 -0.07022,1.180983 -0.208984,1.382813 -0.22706,0.32797 -0.5122575,0.492187 -1.0546875,0.492187 h -0.453125 v 0.550781 h 2.8618195 2.861977 v -0.550781 h -0.453125 c -0.54243,0 -0.827628,-0.164217 -1.054688,-0.492187 -0.13878,-0.20183 -0.200984,-0.663823 -0.208984,-1.382813 V 5.9461055 h 1.242187 c 0.59919,0 0.924796,0.042459 1.177086,0.1308594 0.32798,0.11983 0.608427,0.3508162 0.841797,0.6914063 0.23337,0.34059 0.371916,0.8005893 0.416016,1.3808593 h 0.560546 L 16.962891,4.2675781 h -5.230469 z" transform="translate(587.91667,647.35302)" style="font-style:normal;font-variant:normal;font-weight:400;font-stretch:normal;font-family:'Times New Roman';-inkscape-font-specification:'Times New Roman, ';fill:#4d4d4d;fill-opacity:1;stroke-width:.48439881"/></g></g></svg>