<svg xmlns="http://www.w3.org/2000/svg" xmlns:svg="http://www.w3.org/2000/svg" id="svg3760" width="22" height="22" version="1.1"><metadata id="metadata3765"/><g id="layer1" transform="translate(-553.72253,-583.11926)"><path style="opacity:1;fill:#4d4d4d;fill-opacity:1;stroke:none;stroke-width:3;stroke-linecap:round;stroke-linejoin:bevel;stroke-miterlimit:4;stroke-dasharray:none;stroke-dashoffset:0;stroke-opacity:1" id="path4213" d="M 11 3 A 8 6 0 0 0 3 9 A 8 6 0 0 0 5.2011719 13.128906 L 3 19 L 9.5625 14.898438 A 8 6 0 0 0 11 15 A 8 6 0 0 0 19 9 A 8 6 0 0 0 11 3 z M 11 4.0273438 C 12.892663 4.0273436 14.766628 4.6242873 16.041016 5.5800781 C 17.315403 6.535869 17.972656 7.7878377 17.972656 9 C 17.972656 10.212162 17.315403 11.464131 16.041016 12.419922 C 14.76707 13.375381 12.893947 13.972243 11.001953 13.972656 C 10.566433 13.971493 10.132202 13.940573 9.7050781 13.880859 A 1.0275136 1.0275136 0 0 0 9.0175781 14.027344 L 5.0273438 16.521484 L 6.1640625 13.490234 A 1.0275136 1.0275136 0 0 0 5.8378906 12.322266 C 4.6419171 11.378477 4.0285192 10.169811 4.0273438 8.9980469 C 4.0280061 7.7864544 4.6852386 6.5353875 5.9589844 5.5800781 C 7.2333721 4.6242873 9.1073365 4.0273438 11 4.0273438 z" transform="translate(553.72253,583.11926)"/><rect id="rect4223" width="10" height="1" x="559.723" y="590.119" ry=".5" style="opacity:1;fill:#4d4d4d;fill-opacity:1;stroke:none;stroke-width:3;stroke-linecap:round;stroke-linejoin:bevel;stroke-miterlimit:4;stroke-dasharray:none;stroke-dashoffset:0;stroke-opacity:1"/><rect style="opacity:1;fill:#4d4d4d;fill-opacity:1;stroke:none;stroke-width:3;stroke-linecap:round;stroke-linejoin:bevel;stroke-miterlimit:4;stroke-dasharray:none;stroke-dashoffset:0;stroke-opacity:1" id="rect4225" width="10" height="1" x="559.723" y="593.119" ry=".5"/></g></svg>