<svg xmlns="http://www.w3.org/2000/svg" xmlns:svg="http://www.w3.org/2000/svg" id="svg3760" width="22" height="22" version="1.1"><metadata id="metadata3765"/><g id="layer1" transform="translate(-553.72253,-583.11926)"><path style="opacity:1;fill:#4d4d4d;fill-opacity:1;stroke:none" id="rect3312" d="M 7 3 L 7 7 L 3 7 L 3 8 L 7 8 L 7 14 L 3 14 L 3 15 L 7 15 L 7 19 L 8 19 L 8 15 L 14 15 L 14 19 L 15 19 L 15 15 L 19 15 L 19 14 L 15 14 L 15 8 L 19 8 L 19 7 L 15 7 L 15 3 L 14 3 L 14 7 L 8 7 L 8 3 L 7 3 z M 8 8 L 14 8 L 14 14 L 8 14 L 8 8 z" transform="translate(553.72253,583.11926)"/></g></svg>