<svg xmlns="http://www.w3.org/2000/svg" xmlns:svg="http://www.w3.org/2000/svg" id="svg2" width="22" height="22" version="1.1" viewBox="0 0 22 22"><metadata id="metadata7"/><g id="layer1" transform="translate(0,-1030.3622)"><path style="fill:#4d4d4d;fill-opacity:1;stroke:none" id="rect3356" d="m 11,1033.3622 c 4.432,0 8,3.568 8,8 0,4.432 -3.568,8 -8,8 -4.432,0 -8,-3.568 -8,-8 0,-4.432 3.568,-8 8,-8 z m 0,1 c -3.878,0 -7,3.122 -7,7 0,3.878 3.122,7 7,7 3.878,0 7,-3.122 7,-7 0,-3.878 -3.122,-7 -7,-7 z"/><path style="fill:#4d4d4d;fill-opacity:1;stroke:none" id="path3357" d="m 7.000004,1044.3622 4,-3 -4,-3 z"/><path id="path4148" d="m 11.000004,1044.3622 4,-3 -4,-3 z" style="fill:#4d4d4d;fill-opacity:1;stroke:none"/></g></svg>