<svg xmlns="http://www.w3.org/2000/svg" xmlns:svg="http://www.w3.org/2000/svg" id="svg2" width="16" height="16" version="1.1"><metadata id="metadata7"/><g id="layer1" transform="translate(0,-1036.3622)"><path style="fill:#da4453;fill-opacity:1;stroke:none;stroke-width:1;stroke-linecap:round;stroke-linejoin:round;stroke-miterlimit:4;stroke-opacity:1;stroke-dasharray:none;stroke-dashoffset:0" id="path2989" d="M 16,8 A 8,8 0 1 1 0,8 8,8 0 1 1 16,8 z" transform="translate(0,1036.3622)"/><path style="font-size:medium;font-style:normal;font-variant:normal;font-weight:400;font-stretch:normal;text-indent:0;text-align:start;text-decoration:none;line-height:normal;letter-spacing:normal;word-spacing:normal;text-transform:none;direction:ltr;block-progression:tb;writing-mode:lr-tb;text-anchor:start;baseline-shift:baseline;color:#000;fill:#fff;fill-opacity:1;stroke:none;stroke-width:2.66666675;marker:none;visibility:visible;display:inline;overflow:visible;enable-background:accumulate;font-family:Sans;-inkscape-font-specification:Sans" id="path3761" d="m 4.3591418,1039.479 a 1.2133033,1.2133033 0 0 0 -0.8530185,2.1041 l 2.6159235,2.6159 -2.6727914,2.9856 a 1.218422,1.218422 0 1 0 1.8197729,1.6207 l 2.5590556,-2.9002 2.9571311,2.9571 a 1.2164611,1.2164611 0 1 0 1.706037,-1.7345 l -3.0424329,-3.0424 2.2747159,-2.5591 a 1.2133033,1.2133033 0 1 0 -1.7913387,-1.6206 l -2.1894143,2.4737 -2.5306216,-2.5307 a 1.2133033,1.2133033 0 0 0 -0.8530186,-0.3696 z"/></g></svg>