<svg xmlns="http://www.w3.org/2000/svg" xmlns:svg="http://www.w3.org/2000/svg" id="svg2" width="16" height="16" version="1.1"><metadata id="metadata7"/><g id="layer1" transform="translate(0,-1036.3622)"><path style="fill:#34495e;fill-opacity:1;stroke:none;stroke-width:1;stroke-linecap:round;stroke-linejoin:round;stroke-miterlimit:4;stroke-opacity:1;stroke-dasharray:none;stroke-dashoffset:0" id="path2989" d="m 16,8 c 0,4.418278 -3.581722,8 -8,8 C 3.581722,16 0,12.418278 0,8 0,3.581722 3.581722,0 8,0 c 4.418278,0 8,3.581722 8,8 z" transform="translate(0,1036.3622)"/><path style="font-size:medium;font-style:normal;font-variant:normal;font-weight:400;font-stretch:normal;text-indent:0;text-align:start;text-decoration:none;line-height:normal;letter-spacing:normal;word-spacing:normal;text-transform:none;direction:ltr;block-progression:tb;writing-mode:lr-tb;text-anchor:start;baseline-shift:baseline;color:#000;fill:#eff0f1;fill-opacity:1;fill-rule:nonzero;stroke:none;stroke-width:2;marker:none;visibility:visible;display:inline;overflow:visible;enable-background:accumulate;font-family:Sans;-inkscape-font-specification:Sans" id="rect3810" d="m 4.9375,1039.375 c -1.6975127,0 -2.9375,1.5404 -2.9375,3.25 l 0,3.5 c 0,1.7096 1.2399873,3.25 2.9375,3.25 l 6.125,0 c 1.697513,0 2.9375,-1.5404 2.9375,-3.25 l 0,-3.5 c 0,-1.7096 -1.239987,-3.25 -2.9375,-3.25 l -6.125,0 z m 0,2 6.125,0 c 0.453336,0 0.9375,0.4665 0.9375,1.25 l 0,3.5 c 0,0.7835 -0.484164,1.25 -0.9375,1.25 l -6.125,0 C 4.4841643,1047.375 4,1046.9085 4,1046.125 l 0,-3.5 c 0,-0.7835 0.4841643,-1.25 0.9375,-1.25 z"/></g></svg>