<svg xmlns="http://www.w3.org/2000/svg" xmlns:svg="http://www.w3.org/2000/svg" id="svg3813" width="23.467" height="23.467" version="1.1"><metadata id="metadata3818"/><g id="layer1" transform="translate(-404.11428,-576.08157)"><path style="opacity:.95999995;fill:#f2f2f2;fill-opacity:1;stroke:none;stroke-width:3.22740197;stroke-miterlimit:4;stroke-dasharray:none;stroke-opacity:1;paint-order:normal" id="rect825" d="m 420.50565,579.73417 -1.50485,2.97669 -0.49608,-0.49606 c -0.27485,-0.2749 -0.71721,-0.2749 -0.99209,-2e-5 -0.27488,0.27488 -0.2767,0.71905 -9.8e-4,0.99395 l 0.49605,0.49608 -9.20067,9.20064 c -0.38295,0.38297 -0.48125,0.92488 -0.33073,1.40641 l -0.0254,-0.0253 -1.10232,1.10231 0.95943,0.9594 1.10228,-1.10232 -0.0254,-0.0255 c 0.48156,0.15055 1.02346,0.0522 1.40643,-0.33072 l 9.20067,-9.20068 0.49606,0.49605 c 0.27488,0.27489 0.71904,0.27307 0.99392,-9.7e-4 0.27491,-0.27488 0.27491,-0.71722 1e-5,-0.9921 l -0.49605,-0.49605 c 0,0 1.98428,-1.00338 2.97643,-1.50509 1.44529,-3.24244 -0.76191,-4.66408 -3.45659,-3.45658 z m -2.05746,4.41193 1.10144,1.10144 -8.7664,8.76641 c -0.54977,0.54976 -0.92586,0.59767 -1.31239,0.21112 -0.38657,-0.38655 -0.33882,-0.76281 0.21094,-1.31258 z"/></g></svg>