<svg xmlns="http://www.w3.org/2000/svg" xmlns:svg="http://www.w3.org/2000/svg" id="svg3813" width="16" height="16" version="1.1"><metadata id="metadata3818"/><g id="layer1" transform="translate(-378.85714,-546.07647)"><path style="opacity:1;fill:silver;fill-opacity:1;stroke:none;stroke-width:3;stroke-linecap:round;stroke-linejoin:bevel;stroke-miterlimit:4;stroke-dasharray:none;stroke-dashoffset:0;stroke-opacity:1" id="path4181" d="m 388.35714,548.73272 c -1.87621,0 -3.43381,1.34511 -3.77149,3.12305 -1.7284,0.35667 -3.02734,1.88667 -3.02734,3.7207 0,2.09852 1.70031,3.79883 3.79883,3.79883 1.83403,0 3.36403,-1.29894 3.7207,-3.02735 1.77794,-0.33767 3.12305,-1.89527 3.12305,-3.77148 0,-2.12285 -1.7209,-3.84375 -3.84375,-3.84375 z"/><path style="opacity:1;fill:#e7e7e7;fill-opacity:1;stroke:none;stroke-width:3;stroke-linecap:round;stroke-linejoin:bevel;stroke-miterlimit:4;stroke-dasharray:none;stroke-dashoffset:0;stroke-opacity:1" id="path4153" d="m 385.29084,551.72704 c 2.1626,0 3.91573,1.75313 3.91573,3.91573 -7.5e-4,0.24021 -0.024,0.47983 -0.0688,0.71584 -0.23554,0.0442 -0.47464,0.0667 -0.71431,0.0672 -2.16259,0 -3.91573,-1.75313 -3.91573,-3.91572 7.5e-4,-0.24022 0.024,-0.47985 0.0688,-0.71585 0.23554,-0.0442 0.47465,-0.0667 0.71431,-0.0672 z"/><path style="opacity:1;fill:#f2f2f2;fill-opacity:1;stroke:none;stroke-width:3;stroke-linecap:round;stroke-linejoin:bevel;stroke-miterlimit:4;stroke-dasharray:none;stroke-dashoffset:0;stroke-opacity:1" id="circle4164" d="m 388.35714,548.07647 a 4.5000026,4.5000026 0 0 0 -4.5,4.5 4.5000026,4.5000026 0 0 0 4.5,4.5 4.5000026,4.5000026 0 0 0 4.5,-4.5 4.5000026,4.5000026 0 0 0 -4.5,-4.5 z m 0,0.75 a 3.7500021,3.7500021 0 0 1 3.75,3.75 3.7500021,3.7500021 0 0 1 -3.75,3.75 3.7500021,3.7500021 0 0 1 -3.75,-3.75 3.7500021,3.7500021 0 0 1 3.75,-3.75 z"/><path id="path4174" d="m 385.35714,551.07647 a 4.5000026,4.5000026 0 0 0 -4.5,4.5 4.5000026,4.5000026 0 0 0 4.5,4.5 4.5000026,4.5000026 0 0 0 4.5,-4.5 4.5000026,4.5000026 0 0 0 -4.5,-4.5 z m 0,0.75 a 3.7500021,3.7500021 0 0 1 3.75,3.75 3.7500021,3.7500021 0 0 1 -3.75,3.75 3.7500021,3.7500021 0 0 1 -3.75,-3.75 3.7500021,3.7500021 0 0 1 3.75,-3.75 z" style="opacity:1;fill:#f2f2f2;fill-opacity:1;stroke:none;stroke-width:3;stroke-linecap:round;stroke-linejoin:bevel;stroke-miterlimit:4;stroke-dasharray:none;stroke-dashoffset:0;stroke-opacity:1"/></g></svg>