<svg xmlns="http://www.w3.org/2000/svg" xmlns:svg="http://www.w3.org/2000/svg" id="svg2" width="22" height="22" version="1.1" viewBox="0 0 22 22"><metadata id="metadata7"/><g id="layer1" transform="translate(0,-1030.3622)"><g id="layer1-9" transform="matrix(-1,0,0,1,22,0)"><g id="layer1-2" transform="matrix(-1,0,0,1,22,0)"><path style="opacity:1;fill:#f2f2f2;fill-opacity:1;stroke:none" id="path4174" d="m 3,1033.3622 0,1 16,0 0,-1 z m 0,2 0,1 9,0 0,-1 z m 0,4 0,1 10,0 0,-1 z m 0,2 0,1 4,0 0,-1 z m 0,4 0,1 10,0 0,-1 z m 0,2 0,1 7,0 0,-1 z m 8,1 0,1 2,0 0,-1 z"/></g></g></g></svg>