<svg xmlns="http://www.w3.org/2000/svg" xmlns:svg="http://www.w3.org/2000/svg" id="svg18109" width="22" height="22" version="1.1"><metadata id="metadata18114"/><g id="layer1" transform="translate(0,-1030.3622)"><path style="opacity:1;fill:#f2f2f2;fill-opacity:1;stroke:none;stroke-width:2.79999995;stroke-miterlimit:4;stroke-dasharray:none;stroke-opacity:.55026455" id="rect4146" d="m 19,1046.3622 -1,0 0,-1 1,0 0,1 z m 0,-9 -1,0 0,-1 1,0 0,1 z m -2,9 -1,0 0,3 -10,0 0,-3 -1,0 0,-1 1,0 0,-3 3,0 0,-2 -3,0 0,-3 -1,0 0,-1 1,0 0,-3 10,0 0,3 1,0 0,1 -1,0 0,3 -3,0 0,2 3,0 0,3 1,0 0,1 z m -2,2 0,-5 -8,0 0,5 8,0 z m 0,-9 0,-5 -8,0 0,5 8,0 z m -1,8 -6,0 0,-3 6,0 0,3 z m -2,-5 0,-2 -2,0 0,2 2,0 z m -8,4 -1,0 0,-1 1,0 0,1 z m 0,-9 -1,0 0,-1 1,0 0,1 z"/></g></svg>