<svg xmlns="http://www.w3.org/2000/svg" xmlns:svg="http://www.w3.org/2000/svg" id="svg2" width="22" height="22" version="1.1"><metadata id="metadata7"/><g id="layer1" transform="translate(0,-1030.3622)"><path style="opacity:1;fill:#f2f2f2;fill-opacity:1;stroke:none" id="rect4136" d="M 11 3 C 8.784 3 7 4.784 7 7 L 7 11 L 5 11 L 5 12 L 5 19 L 6 19 L 16 19 L 17 19 L 17 11 L 16 11 L 15 11 L 15 7 C 15 4.784 13.216 3 11 3 z M 11 4 C 12.662 4 14 5.338 14 7 L 14 11 L 8 11 L 8 7 C 8 5.338 9.338 4 11 4 z M 6 12 L 16 12 L 16 18 L 6 18 L 6 12 z" transform="translate(0,1030.3622)"/></g></svg>