<svg xmlns="http://www.w3.org/2000/svg" xmlns:svg="http://www.w3.org/2000/svg" id="svg3049" width="23.467" height="23.467" version="1.1"><metadata id="metadata3054"/><g id="layer1" transform="translate(-449.82858,-560.84346)"><path style="opacity:1;fill:#f2f2f2;fill-opacity:1;stroke:none;stroke-width:2.98666668;stroke-miterlimit:4;stroke-dasharray:none;stroke-opacity:.55026455" id="rect3344" d="M 2.1328125 3.1992188 L 2.1328125 5.3339844 L 3.1992188 5.3339844 L 4.2675781 5.3339844 L 4.2675781 4.2675781 L 4.2675781 3.1992188 L 2.1328125 3.1992188 z M 19.199219 3.1992188 L 19.199219 4.2675781 L 18.132812 4.2675781 L 18.132812 5.3339844 L 19.199219 5.3339844 L 20.267578 5.3339844 L 21.333984 5.3339844 L 21.333984 3.1992188 L 19.199219 3.1992188 z M 5.3339844 4.2675781 L 5.3339844 5.3339844 L 6.4003906 5.3339844 L 6.4003906 4.2675781 L 5.3339844 4.2675781 z M 7.4667969 4.2675781 L 7.4667969 5.3339844 L 8.5332031 5.3339844 L 8.5332031 4.2675781 L 7.4667969 4.2675781 z M 9.5996094 4.2675781 L 9.5996094 5.3339844 L 10.666016 5.3339844 L 10.666016 4.2675781 L 9.5996094 4.2675781 z M 11.732422 4.2675781 L 11.732422 5.3339844 L 12.800781 5.3339844 L 12.800781 4.2675781 L 11.732422 4.2675781 z M 13.867188 4.2675781 L 13.867188 5.3339844 L 14.933594 5.3339844 L 14.933594 4.2675781 L 13.867188 4.2675781 z M 16 4.2675781 L 16 5.3339844 L 17.066406 5.3339844 L 17.066406 4.2675781 L 16 4.2675781 z M 3.1992188 6.4003906 L 3.1992188 7.4667969 L 4.2675781 7.4667969 L 4.2675781 6.4003906 L 3.1992188 6.4003906 z M 19.199219 6.4003906 L 19.199219 7.4667969 L 20.267578 7.4667969 L 20.267578 6.4003906 L 19.199219 6.4003906 z M 3.1992188 8.5332031 L 3.1992188 9.5996094 L 4.2675781 9.5996094 L 4.2675781 8.5332031 L 3.1992188 8.5332031 z M 19.199219 8.5332031 L 19.199219 9.5996094 L 20.267578 9.5996094 L 20.267578 8.5332031 L 19.199219 8.5332031 z M 3.1992188 10.666016 L 3.1992188 11.732422 L 4.2675781 11.732422 L 4.2675781 10.666016 L 3.1992188 10.666016 z M 19.199219 10.666016 L 19.199219 11.732422 L 20.267578 11.732422 L 20.267578 10.666016 L 19.199219 10.666016 z M 3.1992188 12.800781 L 3.1992188 13.867188 L 4.2675781 13.867188 L 4.2675781 12.800781 L 3.1992188 12.800781 z M 19.199219 12.800781 L 19.199219 13.867188 L 20.267578 13.867188 L 20.267578 12.800781 L 19.199219 12.800781 z M 3.1992188 14.933594 L 3.1992188 16 L 4.2675781 16 L 4.2675781 14.933594 L 3.1992188 14.933594 z M 19.199219 14.933594 L 19.199219 16 L 20.267578 16 L 20.267578 14.933594 L 19.199219 14.933594 z M 3.1992188 17.066406 L 3.1992188 18.132812 L 2.1328125 18.132812 L 2.1328125 20.267578 L 4.2675781 20.267578 L 4.2675781 19.199219 L 4.2675781 18.132812 L 4.2675781 17.066406 L 3.1992188 17.066406 z M 19.199219 17.066406 L 19.199219 18.132812 L 18.132812 18.132812 L 18.132812 19.199219 L 19.199219 19.199219 L 19.199219 20.267578 L 21.333984 20.267578 L 21.333984 18.132812 L 20.267578 18.132812 L 20.267578 17.066406 L 19.199219 17.066406 z M 5.3339844 18.132812 L 5.3339844 19.199219 L 6.4003906 19.199219 L 6.4003906 18.132812 L 5.3339844 18.132812 z M 7.4667969 18.132812 L 7.4667969 19.199219 L 8.5332031 19.199219 L 8.5332031 18.132812 L 7.4667969 18.132812 z M 9.5996094 18.132812 L 9.5996094 19.199219 L 10.666016 19.199219 L 10.666016 18.132812 L 9.5996094 18.132812 z M 11.732422 18.132812 L 11.732422 19.199219 L 12.800781 19.199219 L 12.800781 18.132812 L 11.732422 18.132812 z M 13.867188 18.132812 L 13.867188 19.199219 L 14.933594 19.199219 L 14.933594 18.132812 L 13.867188 18.132812 z M 16 18.132812 L 16 19.199219 L 17.066406 19.199219 L 17.066406 18.132812 L 16 18.132812 z" transform="translate(449.82858,560.84346)"/></g></svg>